<svg aria-hidden="true" style="position: absolute; width: 0; height: 0; overflow: hidden;" version="1.1"
  xmlns="http://www.w3.org/2000/svg" xmlns:xlink="http://www.w3.org/1999/xlink">
  <defs>
    <symbol id="icon-btn-" viewBox="0 0 32 32">
      <path fill="#ff6596" style="fill: var(--color1, #ff6596)"
        d="M25.514 13.405c0 5.254-4.259 9.513-9.514 9.513s-9.514-4.259-9.514-9.514c0-5.254 4.259-9.514 9.514-9.514s9.514 4.259 9.514 9.514z">
      </path>
      <path fill="none" stroke="#fff" style="stroke: var(--color2, #fff)" stroke-linejoin="miter" stroke-linecap="butt"
        stroke-miterlimit="4" stroke-width="0.8649" d="M11.676 13.405h8.649"></path>
    </symbol>
    <symbol id="icon-btn+" viewBox="0 0 32 32">
      <path fill="#24cca7" style="fill: var(--color3, #24cca7)"
        d="M25.863 13.589c0 5.326-4.318 9.644-9.644 9.644s-9.644-4.318-9.644-9.644c0-5.326 4.318-9.644 9.644-9.644s9.644 4.318 9.644 9.644z">
      </path>
      <path fill="none" stroke="#fff" style="stroke: var(--color2, #fff)" stroke-linejoin="miter" stroke-linecap="butt"
        stroke-miterlimit="4" stroke-width="0.8767" d="M16.219 9.205v8.767M11.836 13.589h8.767"></path>
    </symbol>
    <symbol id="icon-calendar" viewBox="0 0 32 32">
      <path fill="#4a56e2" style="fill: var(--color4, #4a56e2)"
        d="M12 14.667h-2.667v2.667h2.667v-2.667zM17.333 14.667h-2.667v2.667h2.667v-2.667zM22.667 14.667h-2.667v2.667h2.667v-2.667zM25.333 5.333h-1.333v-2.667h-2.667v2.667h-10.667v-2.667h-2.667v2.667h-1.333c-1.48 0-2.653 1.2-2.653 2.667l-0.013 18.667c0 1.473 1.194 2.667 2.667 2.667v0h18.667c1.467 0 2.667-1.2 2.667-2.667v-18.667c0-1.467-1.2-2.667-2.667-2.667zM25.333 26.667h-18.667v-14.667h18.667v14.667z">
      </path>
    </symbol>
    <symbol id="icon-close" viewBox="0 0 32 32">
      <path stroke-linejoin="miter" stroke-linecap="butt" stroke-miterlimit="4" stroke-width="1.7778"
        d="M1.778 1.778l28.444 28.444M1.778 30.222l28.444-28.444"></path>
    </symbol>
    <symbol id="icon-currency" viewBox="0 0 32 32">
      <path fill="#6e78e8" style="fill: var(--color5, #6e78e8)"
        d="M5.053 0c-2.791 0-5.053 2.262-5.053 5.053v0 21.895c0 2.791 2.262 5.053 5.053 5.053v0h21.895c2.791 0 5.053-2.262 5.053-5.053v0-21.895c0-2.791-2.262-5.053-5.053-5.053v0h-21.895zM13.265 13.136c0 0.995 0.765 1.634 3.144 2.253s4.925 1.635 4.925 4.611c0 2.147-1.624 3.332-3.667 3.72v2.253h-3.144v-2.274c-2.012-0.429-3.731-1.718-3.855-4.013h2.305c0.115 1.236 0.964 2.2 3.123 2.2 2.316 0 2.829-1.152 2.829-1.875 0-0.974-0.525-1.896-3.144-2.525-2.924-0.702-4.925-1.907-4.925-4.328 0-2.021 1.635-3.341 3.667-3.782v-2.264h3.144v2.295c2.189 0.535 3.29 2.189 3.363 3.992h-2.316c-0.062-1.309-0.754-2.2-2.619-2.2-1.771 0-2.829 0.797-2.829 1.939z">
      </path>
    </symbol>
    <symbol id="icon-email" viewBox="0 0 42 32">
      <path fill="#e0e0e0" style="fill: var(--color6, #e0e0e0)"
        d="M37 0h-32c-2.2 0-3.98 1.8-3.98 4l-0.020 24c0 2.2 1.8 4 4 4h32c2.2 0 4-1.8 4-4v-24c0-2.2-1.8-4-4-4zM37 8l-16 10-16-10v-4l16 10 16-10v4z">
      </path>
    </symbol>
    <symbol id="icon-exit" viewBox="0 0 32 32">
      <path fill="#bdbdbd" style="fill: var(--color7, #bdbdbd)"
        d="M20.052 23.236h2.498v4.999c-0.002 2.069-1.679 3.746-3.747 3.748h-15.054c-2.069-0.002-3.746-1.679-3.748-3.747v-24.487c0.002-2.069 1.679-3.746 3.747-3.748h15.054c2.069 0.002 3.746 1.679 3.748 3.747v4.999h-2.496v-4.996c0-0.001 0-0.001 0-0.002 0-0.69-0.56-1.25-1.25-1.25 0 0 0 0 0 0h-15.056c-0.69 0.001-1.249 0.56-1.25 1.25v24.487c0 0.688 0.562 1.248 1.25 1.248h15.054c0 0 0 0 0 0 0.69 0 1.249-0.559 1.25-1.248v-5.001zM26.11 10.101l-1.767 1.767 2.875 2.873h-16.16v2.5h16.16l-2.875 2.873 1.767 1.767 5.89-5.89-5.89-5.89z">
      </path>
    </symbol>
    <symbol id="icon-home" viewBox="0 0 32 32">
      <path fill="#6e78e8" style="fill: var(--color5, #6e78e8)"
        d="M5.053 0c-2.791 0-5.053 2.262-5.053 5.053v0 21.895c0 2.791 2.262 5.053 5.053 5.053v0h21.895c2.791 0 5.053-2.262 5.053-5.053v0-21.895c0-2.791-2.262-5.053-5.053-5.053v0h-21.895zM13.417 17.987v6.901h-5.754v-9.203h-3.453l11.509-10.353 11.508 10.353h-3.453v9.203h-5.754v-6.901h-4.604z">
      </path>
    </symbol>
    <symbol id="icon-password-lock" viewBox="0 0 33 32">
      <path fill="#e0e0e0" style="fill: var(--color6, #e0e0e0)"
        d="M24.667 10.667h-1.333v-2.667c0-3.68-2.987-6.667-6.667-6.667s-6.667 2.987-6.667 6.667v2.667h-1.333c-1.467 0-2.667 1.2-2.667 2.667v13.333c0 1.467 1.2 2.667 2.667 2.667h16c1.467 0 2.667-1.2 2.667-2.667v-13.333c0-1.467-1.2-2.667-2.667-2.667zM16.667 22.667c-1.467 0-2.667-1.2-2.667-2.667s1.2-2.667 2.667-2.667 2.667 1.2 2.667 2.667-1.2 2.667-2.667 2.667zM20.8 10.667h-8.267v-2.667c0-2.28 1.853-4.133 4.133-4.133s4.133 1.853 4.133 4.133v2.667z">
      </path>
    </symbol>
    <symbol id="icon-select" viewBox="0 0 58 32">
      <path stroke-linejoin="miter" stroke-linecap="butt" stroke-miterlimit="4" stroke-width="2.9091"
        d="M2.909 2.909l26.182 26.182 26.182-26.182"></path>
    </symbol>
    <symbol id="icon-statistics" viewBox="0 0 32 32">
      <path fill="#6e78e8" style="fill: var(--color5, #6e78e8)"
        d="M5.053 0h21.895c2.791 0 5.053 2.262 5.053 5.053v21.895c0 2.791-2.262 5.053-5.053 5.053h-21.895c-2.791 0-5.053-2.262-5.053-5.053v-21.895c0-2.791 2.262-5.053 5.053-5.053zM24.842 13.941c1.080 0 1.965-0.926 1.965-2.058s-0.884-2.058-1.965-2.058c-1.080 0-1.965 0.926-1.965 2.058 0 0.185 0.019 0.36 0.068 0.525l-3.487 3.664c-0.145-0.046-0.311-0.072-0.483-0.072-0.010 0-0.020 0-0.029 0l0.001-0c-0.177 0-0.354 0.020-0.511 0.072l-2.505-2.624c0.050-0.165 0.069-0.35 0.069-0.536 0-1.132-0.884-2.058-1.965-2.058s-1.965 0.926-1.965 2.058c0 0.185 0.020 0.371 0.069 0.536l-4.48 4.683c-0.142-0.046-0.306-0.073-0.477-0.073-0.009 0-0.017 0-0.026 0l0.001-0c-1.080 0-1.965 0.926-1.965 2.059s0.884 2.058 1.965 2.058 1.965-0.926 1.965-2.058c0-0.185-0.019-0.36-0.068-0.525l4.47-4.694c0.157 0.051 0.334 0.072 0.511 0.072s0.354-0.021 0.51-0.072l2.505 2.625c-0.043 0.151-0.068 0.326-0.068 0.505 0 0.010 0 0.021 0 0.031l-0-0.002c0 1.133 0.884 2.059 1.965 2.059s1.965-0.926 1.965-2.059c0-0.185-0.019-0.371-0.068-0.535l3.497-3.654c0.157 0.051 0.324 0.072 0.501 0.072z">
      </path>
    </symbol>
    <symbol id="icon-name" viewBox="0 0 33 32">
      <path fill="#e0e0e0" style="fill: var(--color4, #e0e0e0)"
        d="M4.667 6.667v18.667c0 1.467 1.187 2.667 2.667 2.667h18.667c1.467 0 2.667-1.2 2.667-2.667v-18.667c0-1.467-1.2-2.667-2.667-2.667h-18.667c-1.48 0-2.667 1.2-2.667 2.667zM20.667 12c0 2.213-1.787 4-4 4s-4-1.787-4-4c0-2.213 1.787-4 4-4s4 1.787 4 4zM8.667 22.667c0-2.667 5.333-4.133 8-4.133s8 1.467 8 4.133v1.333h-16v-1.333z">
      </path>
    </symbol>
    <symbol id="icon-logo" viewBox="0 0 128 32">
      <path fill="#24cca7" style="fill: var(--color1, #24cca7)"
        d="M3.755 7.619l16.211-4.537-0.858-1.779c-0.562-1.157-1.932-1.634-3.060-1.058l-14.513 7.375h2.219z"></path>
      <path fill="#24cca7" style="fill: var(--color1, #24cca7)"
        d="M24.813 3.048c-0.195 0-0.391 0.029-0.586 0.087l-15.012 4.484h18.431l-0.693-2.779c-0.266-1.083-1.163-1.793-2.14-1.793z">
      </path>
      <path fill="#4a56e2" style="fill: var(--color2, #4a56e2)"
        d="M28.36 8.573h-26.559c-0.568 0-1.074 0.26-1.405 0.67-0.151 0.189-0.266 0.406-0.331 0.645-0.040 0.15-0.065 0.307-0.065 0.467v19.862c0 0.984 0.805 1.783 1.797 1.783h26.559c0.992 0 1.797-0.799 1.797-1.783v-4.973h-10.662c-1.685 0-3.055-1.358-3.055-3.030v-3.964c0-0.82 0.331-1.565 0.866-2.111 0.474-0.485 1.11-0.813 1.822-0.895 0.119-0.014 0.241-0.021 0.363-0.021h10.665v-4.867c0.004-0.984-0.801-1.783-1.793-1.783z">
      </path>
      <path fill="#4a56e2" style="fill: var(--color2, #4a56e2)"
        d="M31.414 16.926c-0.18-0.164-0.392-0.289-0.629-0.371-0.183-0.061-0.377-0.096-0.582-0.096h-10.712c-0.992 0-1.797 0.799-1.797 1.783v3.968c0 0.984 0.805 1.783 1.797 1.783h10.712c0.205 0 0.399-0.036 0.582-0.096 0.237-0.078 0.449-0.207 0.629-0.371 0.359-0.324 0.586-0.795 0.586-1.316v-3.968c0-0.521-0.226-0.991-0.586-1.316zM23.243 20.58c0 0.492-0.402 0.891-0.898 0.891h-0.596c-0.496 0-0.898-0.399-0.898-0.891v-0.592c0-0.285 0.133-0.538 0.345-0.699 0.154-0.118 0.345-0.193 0.553-0.193h0.596c0.496 0 0.898 0.399 0.898 0.891v0.592z">
      </path>
      <path fill="#000" style="fill: var(--color3, #000)"
        d="M72.672 7.952l-4.392 16.848h-4.968l-2.688-11.088-2.784 11.088h-4.968l-4.272-16.848h4.392l2.424 12.264 3-12.264h4.512l2.88 12.264 2.448-12.264h4.416z">
      </path>
      <path fill="#000" style="fill: var(--color3, #000)"
        d="M73.914 18.080c0-1.376 0.256-2.584 0.768-3.624 0.528-1.040 1.24-1.84 2.136-2.4s1.896-0.84 3-0.84c0.944 0 1.768 0.192 2.472 0.576 0.72 0.384 1.272 0.888 1.656 1.512v-1.896h4.104v13.392h-4.104v-1.896c-0.4 0.624-0.96 1.128-1.68 1.512-0.704 0.384-1.528 0.576-2.472 0.576-1.088 0-2.080-0.28-2.976-0.84-0.896-0.576-1.608-1.384-2.136-2.424-0.512-1.056-0.768-2.272-0.768-3.648zM83.946 18.104c0-1.024-0.288-1.832-0.864-2.424-0.56-0.592-1.248-0.888-2.064-0.888s-1.512 0.296-2.088 0.888c-0.56 0.576-0.84 1.376-0.84 2.4s0.28 1.84 0.84 2.448c0.576 0.592 1.272 0.888 2.088 0.888s1.504-0.296 2.064-0.888c0.576-0.592 0.864-1.4 0.864-2.424z">
      </path>
      <path fill="#000" style="fill: var(--color3, #000)" d="M95.123 7.040v17.76h-4.104v-17.76h4.104z"></path>
      <path fill="#000" style="fill: var(--color3, #000)" d="M102.201 7.040v17.76h-4.104v-17.76h4.104z"></path>
      <path fill="#000" style="fill: var(--color3, #000)"
        d="M117.799 17.888c0 0.384-0.023 0.784-0.071 1.2h-9.289c0.064 0.832 0.329 1.472 0.793 1.92 0.48 0.432 1.063 0.648 1.751 0.648 1.024 0 1.737-0.432 2.137-1.296h4.368c-0.224 0.88-0.633 1.672-1.225 2.376-0.576 0.704-1.303 1.256-2.183 1.656s-1.865 0.6-2.953 0.6c-1.312 0-2.48-0.28-3.504-0.84s-1.824-1.36-2.4-2.4c-0.576-1.040-0.864-2.256-0.864-3.648s0.28-2.608 0.84-3.648c0.576-1.040 1.376-1.84 2.401-2.4s2.199-0.84 3.527-0.84c1.296 0 2.448 0.272 3.456 0.816s1.792 1.32 2.352 2.328c0.576 1.008 0.864 2.184 0.864 3.528zM113.6 16.808c0-0.704-0.24-1.264-0.72-1.68s-1.081-0.624-1.801-0.624c-0.688 0-1.271 0.2-1.751 0.6-0.464 0.4-0.752 0.968-0.864 1.704h5.136z">
      </path>
      <path fill="#000" style="fill: var(--color3, #000)"
        d="M127.428 21.32v3.48h-2.087c-1.488 0-2.649-0.36-3.481-1.080-0.832-0.736-1.248-1.928-1.248-3.576v-5.328h-1.632v-3.408h1.632v-3.264h4.105v3.264h2.688v3.408h-2.688v5.376c0 0.4 0.096 0.688 0.288 0.864s0.512 0.264 0.96 0.264h1.463z">
      </path>
    </symbol>
  </defs>
</svg>