<svg width="17" height="23" viewBox="0 0 17 23" fill="none" xmlns="http://www.w3.org/2000/svg">
    <path
        d="M8.7 22.3C7.14 22.3 5.82 22.09 4.74 21.67C3.66 21.25 2.83 20.63 2.25 19.81C1.69 18.97 1.41 17.91 1.41 16.63C1.41 16.25 1.44 15.89 1.5 15.55C1.56 15.19 1.64 14.86 1.74 14.56H0.33V12.64H2.85C3.25 12.24 3.78 11.88 4.44 11.56C5.12 11.22 5.82 10.92 6.54 10.66C7.28 10.4 7.93 10.18 8.49 10C9.05 9.8 9.41 9.66 9.57 9.58H0.33V7.66H11.79C11.95 7.38 12.06 7.09 12.12 6.79C12.2 6.49 12.24 6.11 12.24 5.65C12.24 5.03 12.1 4.5 11.82 4.06C11.54 3.6 11.11 3.25 10.53 3.01C9.95 2.77 9.2 2.65 8.28 2.65C7.62 2.65 6.98 2.71 6.36 2.83C5.76 2.95 5.19 3.11 4.65 3.31C4.13 3.49 3.64 3.69 3.18 3.91L2.43 1.54C3.19 1.18 4.12 0.879999 5.22 0.64C6.32 0.399999 7.39 0.279999 8.43 0.279999C9.79 0.279999 10.95 0.469999 11.91 0.849999C12.89 1.21 13.64 1.76 14.16 2.5C14.7 3.24 14.97 4.18 14.97 5.32C14.97 5.74 14.94 6.16 14.88 6.58C14.82 6.98 14.71 7.34 14.55 7.66H16.2V9.58H13.59C13.27 9.9 12.77 10.23 12.09 10.57C11.41 10.89 10.7 11.19 9.96 11.47C9.22 11.75 8.55 11.99 7.95 12.19C7.35 12.39 6.96 12.54 6.78 12.64H16.2V14.56H4.53C4.37 14.86 4.26 15.14 4.2 15.4C4.14 15.66 4.11 16.02 4.11 16.48C4.11 17.26 4.29 17.91 4.65 18.43C5.01 18.93 5.55 19.31 6.27 19.57C6.99 19.83 7.88 19.96 8.94 19.96C10.08 19.96 11.18 19.82 12.24 19.54C13.32 19.24 14.22 18.93 14.94 18.61V21.04C14.26 21.36 13.35 21.65 12.21 21.91C11.07 22.17 9.9 22.3 8.7 22.3Z"
        fill="black" />
</svg>